<svg width="20" height="21" viewBox="0 0 20 21" fill="none" xmlns="http://www.w3.org/2000/svg">
<path fill-rule="evenodd" clip-rule="evenodd" d="M12.75 0.23291H8.694C6.856 0.23291 5.4 0.23291 4.261 0.377349C3.089 0.526508 2.14 0.83993 1.391 1.54607C0.643 2.25316 0.311 3.14906 0.153 4.25548C1.19209e-07 5.33169 0 6.70527 0 8.44042V14.1575C2.41393e-05 15.001 0.318936 15.8167 0.899337 16.4579C1.47974 17.0991 2.28351 17.5237 3.166 17.6552C3.303 18.3765 3.568 18.992 4.098 19.4933C4.7 20.0616 5.458 20.3052 6.358 20.4203C7.225 20.5298 8.328 20.5298 9.695 20.5298H12.805C14.172 20.5298 15.275 20.5298 16.142 20.4203C17.042 20.3052 17.8 20.0616 18.402 19.4933C19.004 18.925 19.262 18.2094 19.384 17.3597C19.5 16.5413 19.5 15.5 19.5 14.2095V9.38541C19.5 8.0949 19.5 7.05362 19.384 6.23514C19.262 5.3855 19.004 4.66991 18.402 4.1016C17.871 3.60126 17.219 3.35109 16.455 3.22175C16.3157 2.38865 15.8659 1.62985 15.1867 1.08192C14.5075 0.533999 13.6434 0.232933 12.75 0.23291ZM14.88 3.08487C14.7279 2.66571 14.4408 2.30193 14.0589 2.04446C13.677 1.78699 13.2193 1.64871 12.75 1.64898H8.75C6.843 1.64898 5.489 1.65086 4.46 1.78114C3.455 1.90859 2.875 2.14837 2.452 2.5477C2.029 2.94703 1.775 3.49458 1.64 4.44429C1.502 5.41476 1.5 6.693 1.5 8.49329V14.1575C1.49971 14.6006 1.64619 15.0327 1.91892 15.3932C2.19166 15.7538 2.577 16.0248 3.021 16.1684C3 15.5925 3 14.9411 3 14.2095V9.38541C3 8.0949 3 7.05362 3.117 6.23514C3.237 5.3855 3.497 4.66991 4.098 4.1016C4.7 3.53329 5.458 3.28972 6.358 3.17549C7.225 3.06504 8.328 3.06504 9.695 3.06504H12.805C13.58 3.06504 14.27 3.06504 14.88 3.08487ZM5.158 5.10417C5.435 4.84267 5.823 4.67275 6.558 4.57929C7.312 4.48394 8.314 4.48205 9.749 4.48205H12.749C14.184 4.48205 15.185 4.48394 15.941 4.57929C16.675 4.67275 17.063 4.84362 17.34 5.10417C17.617 5.36567 17.797 5.73196 17.896 6.42583C17.997 7.13764 17.999 8.08358 17.999 9.43828V14.1585C17.999 15.5132 17.997 16.4582 17.896 17.1719C17.797 17.8648 17.616 18.2311 17.34 18.4926C17.063 18.7541 16.675 18.924 15.94 19.0175C15.185 19.1128 14.184 19.1147 12.749 19.1147H9.749C8.314 19.1147 7.312 19.1128 6.557 19.0175C5.823 18.924 5.435 18.7532 5.158 18.4926C4.881 18.2311 4.701 17.8648 4.602 17.1709C4.501 16.4582 4.499 15.5132 4.499 14.1585V9.43828C4.499 8.08358 4.501 7.13764 4.602 6.42489C4.701 5.73196 4.882 5.36567 5.158 5.10417Z" fill="#7E8299"/>
</svg>
